<?xml version="1.0" encoding="UTF-8"?>
<svg width="361px" height="361px" viewBox="0 0 361 361" version="1.1" xmlns="http://www.w3.org/2000/svg" xmlns:xlink="http://www.w3.org/1999/xlink">
    <title>Vexil.png</title>
    <g id="Vexil.png" stroke="none" stroke-width="1" fill="none" fill-rule="evenodd">
        <rect id="Rectangle" fill="#FFFFFF" x="116" y="37" width="101" height="144"></rect>
        <rect id="Rectangle-Copy" fill="#FFFFFF" x="194" y="37" width="101" height="155"></rect>
        <polygon id="Rectangle" fill="#E6E6E6" points="149 10.5878152 255 47.6586382 255 205.587815 149 168.516992"></polygon>
        <path d="M29,18 L29.9572568,17.9951894 C34.6768365,17.947687 39.1113701,17.5502063 43.0001614,16.883653 L43.0001614,26.8836871 C40.5312977,27.3068175 37.8427083,27.6215147 35.0008853,27.8070813 L35,361 L22,361 L22.0008707,27.7361269 L21.1040134,27.6623688 C18.5786498,27.441101 16.1931822,27.116336 13.9981765,26.7037667 L13.9987757,16.7038793 C18.3755788,17.5264905 23.5096101,18 29,18 Z" id="Path" fill="#747474"></path>
        <path d="M58,9 L58,19 C58,22.3947805 51.9436332,25.3505658 43.0011609,26.8834817 L43,360 L35,360 L35.0008853,27.8070813 L35.9423931,27.7404715 C38.1255766,27.5740218 40.2115939,27.3308473 42.16916,27.0206862 L43.0001614,26.8836871 L43.0001614,16.883653 L43.9680559,16.7101039 C52.3774046,15.1343486 58,12.270951 58,9 Z" id="Path" fill="#C3C3C3"></path>
        <path d="M-2.84217094e-14,9 C-2.84217094e-14,12.2279568 5.47575746,15.0590039 13.7017918,16.6473022 L13.9987757,16.7038793 L13.9981765,26.7037667 C15.9492927,27.070495 18.0508973,27.367847 20.2674762,27.5848012 L21.1040134,27.6623688 L22.0008707,27.7361269 L22,360 L14,360 L13.9997784,26.7040678 C5.6082609,25.1270432 -2.84217094e-14,22.2667788 -2.84217094e-14,19 L-2.84217094e-14,9 Z" id="Path" fill="#4D4D4D"></path>
        <ellipse id="Oval-Copy" fill="#EBEBEB" cx="29" cy="9" rx="29" ry="9"></ellipse>
        <g id="Left" transform="translate(43.000000, 6.000000)" fill="#F05138">
            <path d="M106.000724,0.955846293 L106.000724,49.0261054 L103.859605,47.8591145 C99.6096755,45.5202669 95.5536167,43.1586542 91.8651204,40.8408217 C94.4999784,44.4730141 97.6344436,47.8004214 101.077795,50.8832971 L103.015495,52.7757824 C103.994701,53.7286619 104.989413,54.6911033 105.999505,55.6613375 L106.000724,125.834132 C102.418892,125.632995 98.8211869,125.208585 95.225549,124.549706 C88.3844544,123.293271 81.9517524,121.262168 76,118.570095 C83.5722354,128.491913 93.7898588,136.592677 106.000724,141.938114 L106.000724,175.955846 L0,206 L0,31 L106.000724,0.955846293 Z" id="Path"></path>
        </g>
        <g id="Middle" transform="translate(149.000000, 6.000000)" fill="#A13625">
            <path d="M21.6896528,160.373973 C47.8620225,178.999875 73.8892781,185.616759 93.2744527,180.847384 L93.2599413,180.865992 L93.4672472,180.79875 C94.3379319,180.580779 95.2003245,180.346 96.0419864,180.082623 C98.7546747,179.463848 102.214935,179.062334 106.000673,179.334588 L106.000673,205.999825 L-6.39488462e-14,175.955616 L-6.39488462e-14,141.937864 C6.67099898,148.63924 13.9360854,154.855393 21.6896528,160.373973 Z M64.326257,139.715294 C47.2212814,145.297193 23.9701476,140.768038 0.000555125036,125.834059 L-0.000495030093,55.6606216 L1.7048979,58.2586439 C18.6154651,83.9512605 39.6753916,113.840333 64.326257,139.715294 Z M106,30.9996342 L106.001291,76.0173954 C97.1717476,61.3812609 85.5931965,47.3412157 72.0131597,35.3666037 C88.5312937,62.3585819 95.8326075,91.4497541 89.3439328,113.24278 C88.7655494,115.185723 88.0690015,117.012552 87.2998967,118.76098 C86.6036944,118.109228 85.7577711,117.361967 84.6781489,116.451165 L84.0016598,115.884515 C84.0016598,115.884515 46.508315,82.1914495 5.87221271,29.8768027 C4.80666039,28.5027602 27.5418983,68.3964738 53.3431905,102.869564 L52.7437212,102.359992 C42.6848991,93.7417641 19.6307291,70.764468 -0.00101489062,49.0248167 L-0.00101489062,0.955328785 L106,30.9996342 Z" id="Shape"></path>
        </g>
        <g id="Right" transform="translate(255.000000, 37.000000)" fill="#F05138">
            <path d="M106,-30.0438388 L106,144.956161 L-0.000160851886,175 L-0.000160851886,148.33477 L0.583281642,148.05132 C9.74945368,143.677082 20.6674246,142.327869 27.4959431,153.632346 C29.888958,157.591945 34.9497331,131.869917 16.7200277,114.077305 L16.1438721,113.524645 C16.38642,112.631739 16.6372602,111.740613 16.8507852,110.835277 C22.6885604,86.0051431 15.6769919,62.114504 -0.000160851886,45.0154008 L-0.000160851886,3.55271368e-15 L106,-30.0438388 Z" id="Path"></path>
        </g>
    </g>
</svg>